<svg width="260" height="260" viewBox="0 0 260 260" fill="none" xmlns="http://www.w3.org/2000/svg">
<path d="M253.204 130C253.204 153.862 198.012 209.444 129.942 209.444C61.8657 209.444 6.68066 160.687 6.68066 130C6.68066 106.065 253.204 106.065 253.204 130Z" fill="#E1E8ED"/>
<path d="M253.204 130H6.68066C6.68066 106.073 61.8729 50.5557 129.942 50.5557C198.012 50.5557 253.204 106.066 253.204 130Z" fill="#292F33"/>
<path d="M244.234 130C244.234 150.973 193.05 199.817 129.935 199.817C66.8127 199.817 15.6433 156.953 15.6433 130C15.6433 108.969 66.8127 60.1899 129.935 60.1899C193.05 60.1827 244.234 108.969 244.234 130Z" fill="#F5F8FA"/>
<path d="M130 191.086C163.737 191.086 191.086 163.737 191.086 130C191.086 96.2635 163.737 68.9146 130 68.9146C96.2635 68.9146 68.9146 96.2635 68.9146 130C68.9146 163.737 96.2635 191.086 130 191.086Z" fill="#68C2E8"/>
<path d="M130 164.002C148.779 164.002 164.002 148.779 164.002 130C164.002 111.221 148.779 95.9978 130 95.9978C111.221 95.9978 95.9978 111.221 95.9978 130C95.9978 148.779 111.221 164.002 130 164.002Z" fill="#292F33"/>
<path d="M108.211 122.778C116.188 122.778 122.655 116.311 122.655 108.333C122.655 100.356 116.188 93.8889 108.211 93.8889C100.233 93.8889 93.7661 100.356 93.7661 108.333C93.7661 116.311 100.233 122.778 108.211 122.778Z" fill="#F5F8FA"/>
<circle cx="99.125" cy="131.625" r="4.875" fill="white"/>
<path d="M188.5 58.2742C203.509 58.0744 232.309 82.897 244.833 95.3334" stroke="#EEE170"/>
<path d="M3 74C14.2319 89.7032 31.0133 96.7894 38 98.3696" stroke="#EEE170"/>
</svg>
